<svg version="1.1" id="Layer_1" xmlns="http://www.w3.org/2000/svg" xmlns:xlink="http://www.w3.org/1999/xlink" x="0px" y="0px" viewBox="0 0 21.8 32.8" style="enable-background:new 0 0 21.8 32.8;" xml:space="preserve">
 <style type="text/css">
  .st0{fill-rule:evenodd;clip-rule:evenodd;fill:#BE2BBB;}
 </style>
 <desc>
  Created with sketchtool.
 </desc>
 <g id="Page-1">
  <g id="Home" transform="translate(-764.000000, -68.000000)">
   <g id="homepage" transform="translate(-71.000000, -10.000000)">
    <g id="Nav-_x2F_-header">
     <g id="Group" transform="translate(835.000000, 78.000000)">
      <path id="Fill-1" class="st0" d="M9.1,31.9c-0.2,0.5-0.8,0.8-1.3,0.8c-0.2,0-0.4,0-0.6-0.1C2.5,30.4,0,26.4,0,21.1v-5.9
						c0-0.8,0.7-1.5,1.5-1.5S3,14.4,3,15.2v5.9c0,4.1,1.8,7.1,5.4,8.8C9.1,30.3,9.4,31.2,9.1,31.9L9.1,31.9z M4.7,18.2
						c0,0.8,0.7,1.5,1.5,1.5c0.8,0,1.5-0.7,1.5-1.5V6c0-0.8-0.7-1.5-1.5-1.5C5.4,4.5,4.7,5.2,4.7,6V18.2z M9.4,17.8
						c0,0.8,0.7,1.5,1.5,1.5c0.8,0,1.5-0.7,1.5-1.5V1.5c0-0.8-0.7-1.5-1.5-1.5c-0.8,0-1.5,0.7-1.5,1.5V17.8z M14.1,18.9
						c0,0.8,0.7,1.5,1.5,1.5c0.8,0,1.5-0.7,1.5-1.5V4.3c0-0.8-0.7-1.5-1.5-1.5c-0.8,0-1.5,0.7-1.5,1.5V18.9z M18.8,20.9
						c0,0.8,0.7,1.5,1.5,1.5c0.8,0,1.5-0.7,1.5-1.5V11c0-0.8-0.7-1.5-1.5-1.5c-0.8,0-1.5,0.7-1.5,1.5V20.9z">
      </path>
     </g>
    </g>
   </g>
  </g>
 </g>
</svg>